<svg width="13" height="15" viewBox="0 0 13 15" fill="none" xmlns="http://www.w3.org/2000/svg">
<path d="M1.71289 4.8333C2.29964 3.81595 3.20579 3.02071 4.29071 2.57102C5.37562 2.12132 6.57864 2.04231 7.71305 2.34624C8.84746 2.65017 9.84984 3.32005 10.5646 4.25192C11.2794 5.18379 11.6666 6.32553 11.6661 7.49997" stroke="#E6E6E6" stroke-width="1.5" stroke-linecap="round" stroke-linejoin="round"/>
<path d="M10.9532 10.1667C10.3665 11.184 9.46034 11.9793 8.37543 12.4289C7.29051 12.8786 6.0875 12.9577 4.95308 12.6537C3.81867 12.3498 2.8163 11.6799 2.10152 10.748C1.38675 9.81618 0.999543 8.67443 1 7.5" stroke="#E6E6E6" stroke-width="1.5" stroke-linecap="round" stroke-linejoin="round"/>
<path d="M1.66602 1.5V4.83334H4.99932" stroke="#E6E6E6" stroke-width="1.5" stroke-linecap="round" stroke-linejoin="round"/>
<path d="M10.9993 13.5V10.1666H7.66602" stroke="#E6E6E6" stroke-width="1.5" stroke-linecap="round" stroke-linejoin="round"/>
</svg>
